# xmcd
#
# Track frame offsets: 
#        150
#        21330
#        36295
#        50752
#        61499
#        74322
#        90800
#        107498
#        122113
#        138098
#        154423
#        169486
#
# Disc length: 2490 seconds
#
# Revision: 0
# Processed by: cddbd v1.5.2PL0 Copyright (c) Steve Scherf et al.
# Submitted via: ExactAudioCopy v1.4
#
DISCID=a509b80c
DTITLE=Gary Morris - The Gary Morris Collection
DYEAR=2013
DGENRE=Country
TTITLE0=The Wind Beneath My Wings
TTITLE1=Baby Bye Bye
TTITLE2=Don't Look Back
TTITLE3=Velvet Chains
TTITLE4=Why Lady Why
TTITLE5=I'll Never Stop Loving You
TTITLE6=100% Chance of Rain
TTITLE7=Headed For a Heartache
TTITLE8=The Love She Found In Me
TTITLE9=Another World (Duet w Crystal Gayle)
TTITLE10=Makin' Up For Lost Time (Duet w Crystal Gayle)
TTITLE11=Leave Me Lonely
EXTD=
EXTT0=
EXTT1=
EXTT2=
EXTT3=
EXTT4=
EXTT5=
EXTT6=
EXTT7=
EXTT8=
EXTT9=
EXTT10=
EXTT11=
PLAYORDER=
